PathFileType	4	(X/Y/Z)	C:\Users\Basilio\Documents\Thesis Gigler\squatting_fais\c3dfiles\038\SJ_pre5\markers_experimental.trc
DataRate	CameraRate	NumFrames	NumMarkers	Units	OrigDataRate	OrigDataStartFrame	OrigNumFrames
200.000000	200.000000	4	61	mm	200.000000	943	1510
Frame#	Time	FHD			LBHD			RBHD			C7			T10			CLAV			LSHO			LUUPA			LMUPA			LDUPA			LLEP			LMEP			LRAD			LUL			LRFIN			RSHO			RUPA1			RMUPA			RDUPA			RLEP			RMEP			RRAD			RUL			RUFIN			LASI			RASI			USACR			LSACR			RSACR			LTHI1			LTHI2			LTHI3			LTHI4			LLFC			LMFC			LTIB1			LTIB2			LTIB3			LTIB4			LLMAL			LMMAL			LHEE			LMT1			LMT2			LMT5			RTHI			RTHI2			RTHI3			RTHI4			RLFC			RMFC			RTIB1			RTIB2			RTIB3			RTIB4			RLMAL			RMMAL			RHEE			RMT1			RMT2			RMT5			
		X1	Y1	Z1	X2	Y2	Z2	X3	Y3	Z3	X4	Y4	Z4	X5	Y5	Z5	X6	Y6	Z6	X7	Y7	Z7	X8	Y8	Z8	X9	Y9	Z9	X10	Y10	Z10	X11	Y11	Z11	X12	Y12	Z12	X13	Y13	Z13	X14	Y14	Z14	X15	Y15	Z15	X16	Y16	Z16	X17	Y17	Z17	X18	Y18	Z18	X19	Y19	Z19	X20	Y20	Z20	X21	Y21	Z21	X22	Y22	Z22	X23	Y23	Z23	X24	Y24	Z24	X25	Y25	Z25	X26	Y26	Z26	X27	Y27	Z27	X28	Y28	Z28	X29	Y29	Z29	X30	Y30	Z30	X31	Y31	Z31	X32	Y32	Z32	X33	Y33	Z33	X34	Y34	Z34	X35	Y35	Z35	X36	Y36	Z36	X37	Y37	Z37	X38	Y38	Z38	X39	Y39	Z39	X40	Y40	Z40	X41	Y41	Z41	X42	Y42	Z42	X43	Y43	Z43	X44	Y44	Z44	X45	Y45	Z45	X46	Y46	Z46	X47	Y47	Z47	X48	Y48	Z48	X49	Y49	Z49	X50	Y50	Z50	X51	Y51	Z51	X52	Y52	Z52	X53	Y53	Z53	X54	Y54	Z54	X55	Y55	Z55	X56	Y56	Z56	X57	Y57	Z57	X58	Y58	Z58	X59	Y59	Z59	X60	Y60	Z60	X61	Y61	Z61	

944	4.715	-233.8730468750001	2077.6357421875	-895.943786621094	-345.7374877929688	1951.904907226563	-950.9254150390627	-327.9554138183594	1950.851318359375	-805.9697875976565	-352.0769653320313	1822.682495117188	-867.4813232421877	-358.2547302246094	1537.294311523438	-873.1978149414065	-203.6901092529297	1820.80908203125	-888.5518798828127	-248.6846466064454	1861.5048828125	-1036.497314453125	-228.4778442382813	1687.495849609375	-1217.3173828125	-189.67041015625	1660.961303710938	-1195.516235351563	-203.9216613769532	1625.672485351563	-1240.86279296875	-189.791488647461	1564.359619140625	-1253.435546875	-270.7792968750001	1541.145263671875	-1256.847534179688	-224.5337829589844	1309.691772460938	-1105.075561523438	-168.6654663085938	1281.75390625	-1141.554809570313	-208.2771148681641	1284.945922851563	-1039.57470703125	-211.4169158935547	1846.880126953125	-731.7410278320314	-167.4927215576172	1658.456420898438	-591.5655517578126	-158.639633178711	1619.763671875	-619.7526855468751	-166.3098602294922	1592.334228515625	-566.7546386718751	-166.9566040039063	1517.432250976563	-551.7114257812501	-250.3276977539063	1512.812133789063	-532.4294433593751	-248.5572509765626	1274.79248046875	-670.0839843750001	-190.8484802246094	1242.959594726563	-643.4478149414064	-212.5219726562501	1275.902221679688	-731.1474609375001	-211.8379058837891	1345.954833984375	-1004.235717773438	-213.3962554931641	1344.90625	-758.3474731445314	-372.5791625976563	1400.81689453125	-881.7144775390627	-389.1266174316407	1374.388793945313	-910.1021118164065	-386.8881225585939	1372.217407226563	-854.4260864257815	-307.5043945312501	1026.075317382813	-1093.16796875	-284.5075988769532	944.4803466796877	-1100.4111328125	-236.3336486816407	945.0756835937502	-1085.22509765625	-314.0059204101563	895.521911621094	-1081.379638671875	-312.7174682617188	834.007751464844	-1083.3349609375	-274.2285766601563	805.637145996094	-971.2362060546877	-274.3988342285157	635.8419799804689	-1054.601928710938	-329.8170776367188	605.4880981445314	-1117.650756835938	-290.0033874511719	595.9229125976564	-1096.528564453125	-298.3269653320313	511.9306945800782	-1080.353515625	-385.2501831054689	386.1433715820314	-1111.401123046875	-337.2535705566407	385.3802185058595	-1046.561157226563	-433.6311035156251	385.7390136718751	-1059.211669921875	-269.2578735351563	255.3913269042969	-1054.156127929688	-265.6651000976563	246.7892608642579	-1104.6943359375	-317.7886962890626	243.8239135742188	-1142.320556640625	-317.8270263671876	1077.130249023438	-698.3414306640626	-287.4431762695313	1019.153076171875	-681.9933471679689	-255.5991516113282	1018.940856933594	-677.0324096679689	-318.5122985839844	940.7498779296877	-700.7725219726564	-310.7684020996094	802.4234008789065	-696.9984741210939	-272.8181762695313	791.6494140625002	-812.7913818359377	-262.3334045410157	624.3358154296876	-695.7897338867189	-344.9046630859376	546.1256103515626	-674.0550537109376	-297.3684692382813	549.0607910156251	-671.4608154296876	-279.6810607910157	496.7183532714845	-692.6354370117189	-345.8290405273438	371.7184448242188	-669.5859375000001	-302.0979919433594	376.9485473632813	-740.0642089843751	-399.0338439941407	379.8122253417969	-742.8737792968751	-230.1728515625001	242.6312408447266	-729.8701782226564	-239.0771942138672	234.1566925048829	-684.0751342773439	-293.0873718261719	229.5531005859376	-652.9483032226564	
945	4.72	-234.4084472656251	2083.696044921875	-897.0646972656252	-345.6605834960938	1958.858276367188	-951.2259521484377	-327.5801696777344	1958.25634765625	-806.2167968750002	-351.9908752441407	1829.3642578125	-867.8284301757815	-357.9533081054688	1544.27392578125	-873.2044677734377	-203.2700958251954	1827.770874023438	-888.6918945312502	-248.5411834716797	1868.22900390625	-1036.873046875	-228.0512390136719	1693.824340820313	-1217.60107421875	-189.6418914794922	1667.381103515625	-1195.4736328125	-203.8516540527344	1632.076171875	-1240.899169921875	-189.7431640625	1570.394409179688	-1253.507446289063	-270.6946411132813	1547.528686523438	-1257.072509765625	-225.3867797851563	1316.374633789063	-1104.798950195313	-169.6200408935547	1288.111694335938	-1141.259643554688	-208.6983184814454	1291.666748046875	-1039.010375976563	-211.5330505371094	1853.516967773438	-731.6079101562501	-167.9142150878907	1664.973266601563	-591.7282714843751	-159.1441802978516	1626.284423828125	-619.8663940429689	-166.8762969970703	1599.024658203125	-566.7612915039064	-167.5825347900391	1524.135131835938	-551.4108276367189	-251.029037475586	1519.229248046875	-532.4649047851564	-248.0612182617188	1281.451782226563	-670.3417358398439	-190.4752655029297	1249.672241210938	-643.1876831054689	-211.3241882324219	1282.794921875	-730.8961791992189	-211.5961608886719	1352.908813476563	-1005.1845703125	-212.699203491211	1351.067504882813	-758.2875976562501	-372.0512084960938	1405.87646484375	-881.0397949218752	-388.9321289062501	1379.73828125	-909.1601562500002	-386.5934448242189	1377.685180664063	-853.489440917969	-306.4187011718751	1032.736938476563	-1092.122924804688	-283.8347473144532	951.178894042969	-1098.791870117188	-235.2459411621094	951.0435791015627	-1083.500366210938	-313.5856933593751	902.3446044921877	-1080.011840820313	-312.9371948242188	840.6341552734377	-1082.089721679688	-276.9286804199219	812.214050292969	-969.0058593750002	-274.4219055175782	642.8697509765626	-1052.991821289063	-329.0832824707032	612.1847534179689	-1116.71484375	-289.8243713378907	602.6163330078126	-1095.217407226563	-298.0921630859376	519.0367431640626	-1079.211181640625	-384.5530395507814	392.9355468750001	-1111.67919921875	-336.8731079101563	391.262176513672	-1046.17041015625	-433.1691284179689	392.1253051757814	-1059.815673828125	-268.8715820312501	261.4058227539063	-1054.914672851563	-264.6488342285157	253.4058074951172	-1105.851684570313	-316.6337585449219	251.282943725586	-1143.690063476563	-316.7201538085938	1083.372192382813	-698.7133789062501	-286.8800659179688	1024.493408203125	-683.2987060546876	-254.6329040527344	1023.973022460938	-679.6292724609376	-318.3632507324219	947.106384277344	-702.3287963867189	-310.3015747070313	808.626892089844	-698.1215820312501	-275.1393432617188	798.2454223632815	-814.985778808594	-261.1909179687501	631.0737915039064	-698.1499633789064	-342.4887084960938	552.0808715820314	-674.4760131835939	-294.9495239257813	555.5153808593751	-673.1218872070314	-277.3630371093751	503.4553527832032	-694.3322143554689	-342.2186279296876	377.8522949218751	-670.1125488281251	-299.5014648437501	382.9025573730469	-740.9729003906251	-396.4978942871095	384.5458374023439	-742.8970336914064	-225.9967956542969	249.8620910644532	-729.7747802734376	-233.9694061279297	241.6862030029297	-683.8188476562501	-288.0083312988282	236.8036041259766	-652.1652832031251	
946	4.725000000000001	-233.7699432373047	2090.45849609375	-897.7419433593752	-345.7219543457032	1965.6123046875	-951.4912719726565	-327.2535705566407	1965.042724609375	-806.5516357421877	-352.1230468750001	1836.148681640625	-868.1176757812502	-357.5469055175782	1551.140869140625	-873.220642089844	-203.213851928711	1834.025390625	-888.779235839844	-247.9825286865235	1874.41943359375	-1037.269287109375	-227.7237854003907	1700.158203125	-1217.874145507813	-189.6925201416016	1673.148193359375	-1195.431030273438	-203.8491668701172	1638.199340820313	-1241.047607421875	-190.2672576904297	1576.681762695313	-1253.765014648438	-270.8912353515626	1553.869384765625	-1257.095947265625	-225.8675842285157	1323.009521484375	-1104.148071289063	-170.6720581054688	1294.326171875	-1140.827880859375	-208.8935089111329	1298.245849609375	-1038.6826171875	-211.6727600097657	1859.895751953125	-731.4538574218751	-168.2613525390625	1671.411743164063	-591.5864257812501	-159.9134979248047	1632.537231445313	-619.7717285156251	-167.5698699951172	1605.511962890625	-566.4284667968751	-168.2603759765625	1530.795654296875	-551.0371704101564	-251.8666229248047	1525.80078125	-532.4970092773439	-247.3645477294922	1287.966796875	-670.5448608398439	-189.9624328613282	1256.272216796875	-643.0851440429689	-210.8409271240235	1289.053588867188	-730.6864624023439	-211.2281951904297	1359.641479492188	-1006.464294433594	-211.9961547851563	1357.321899414063	-758.3679809570314	-371.4462890625001	1411.130493164063	-880.3606567382815	-388.441375732422	1384.867797851563	-908.2502441406252	-386.4509582519532	1383.099609375	-852.6121215820315	-305.3152465820313	1038.968505859375	-1091.272827148438	-283.0475463867188	957.1308593750002	-1097.61328125	-234.9837036132813	956.9526977539065	-1081.475463867188	-313.5561828613282	908.613220214844	-1078.589965820313	-313.1752929687501	847.1248168945315	-1080.809814453125	-279.7630920410157	818.5980224609377	-966.5939941406252	-274.7575683593751	649.5261840820314	-1051.205444335938	-328.6795349121094	618.8199462890626	-1115.865112304688	-289.0190429687501	609.5081176757814	-1093.703125	-297.8532409667969	525.4728393554689	-1077.988037109375	-383.5289306640626	399.4680480957032	-1111.812133789063	-336.2513122558594	397.3359985351564	-1046.204223632813	-432.5586242675782	397.8784484863282	-1060.0361328125	-267.9398803710938	267.5374145507813	-1056.366333007813	-263.4425964355469	259.9783325195313	-1107.10986328125	-315.0394897460938	258.9521789550782	-1145.568725585938	-315.5560607910157	1089.30029296875	-699.0496826171876	-286.0823974609376	1030.151245117188	-684.4296875000001	-253.7751922607422	1029.34228515625	-680.9644165039064	-318.2164306640626	953.1182250976565	-703.5892333984376	-310.0736083984376	814.3706054687502	-699.4498291015626	-279.0795593261719	804.981140136719	-817.5916137695315	-259.9680480957032	637.5619506835939	-700.4162597656251	-340.1683349609376	558.1810302734376	-674.5547485351564	-292.5672912597657	561.7675781250001	-674.6964111328126	-275.0360717773438	509.7684326171876	-696.2861938476564	-338.8197631835938	383.9828491210938	-670.6193847656251	-296.7281188964844	388.7351989746095	-741.7387695312501	-393.6570434570314	388.8192749023439	-743.2521362304689	-220.9830474853516	256.5461730957032	-729.4234008789064	-228.6922149658204	248.8936920166016	-683.4959716796876	-282.5064086914063	244.0115966796876	-651.2530517578126	
947	4.73	-233.5086517333985	2096.687744140625	-898.1753540039065	-345.7465820312501	1971.955200195313	-951.928649902344	-327.1214904785157	1971.550537109375	-806.9577636718752	-351.9224243164063	1842.176147460938	-868.5364379882815	-356.9304809570313	1557.91064453125	-873.2119750976565	-203.1666870117188	1840.762084960938	-888.7205810546877	-247.6612854003907	1880.902587890625	-1037.738403320313	-227.5971221923829	1706.2568359375	-1217.978149414063	-189.7317504882813	1679.187622070313	-1195.432006835938	-204.1129150390626	1644.042358398438	-1240.964111328125	-190.7531433105469	1582.640747070313	-1253.803344726563	-271.2735595703126	1559.912963867188	-1257.319458007813	-226.2822265625001	1329.535522460938	-1103.110961914063	-171.7581024169922	1300.302124023438	-1140.570678710938	-209.1119384765626	1304.715698242188	-1037.783203125	-211.9337005615235	1866.080078125	-731.1793823242189	-168.9043273925782	1677.652099609375	-591.3417358398439	-160.5208587646485	1638.838256835938	-619.0873413085939	-168.2033233642578	1611.869262695313	-565.8684082031251	-168.9252319335938	1537.008422851563	-550.1245117187501	-252.6885070800782	1531.9716796875	-532.2700195312501	-246.8062591552735	1294.345581054688	-670.5474243164064	-189.4638824462891	1262.891235351563	-642.9106445312501	-209.7974243164063	1295.41455078125	-730.7699584960939	-210.9228973388672	1366.148803710938	-1007.397155761719	-211.000473022461	1363.384765625	-758.6990356445314	-370.9342041015626	1416.143432617188	-879.5672607421877	-387.9318237304689	1390.061645507813	-907.3330078125002	-386.3723754882814	1388.352661132813	-851.9016113281252	-304.1013488769532	1044.84912109375	-1090.438110351563	-282.4233703613282	962.9995727539065	-1096.085083007813	-234.5189361572266	962.6201782226565	-1079.585571289063	-313.4801940917969	914.799499511719	-1077.187133789063	-313.6416320800782	853.255065917969	-1079.351196289063	-282.2959899902344	824.9165039062502	-964.482849121094	-275.4522705078126	655.3765258789064	-1049.283081054688	-328.2828979492188	625.0370483398439	-1114.84521484375	-288.8944702148438	614.9192504882814	-1092.1484375	-297.3733520507813	531.6827392578126	-1076.89892578125	-382.5461120605469	405.6419372558595	-1111.793823242188	-335.5013732910157	402.6827697753907	-1046.096801757813	-431.6054992675782	402.8013610839845	-1060.198974609375	-266.3237609863282	272.9169921875001	-1058.083618164063	-261.7310485839844	266.9137573242188	-1108.981689453125	-313.1917114257813	266.2530517578126	-1147.610961914063	-314.1232299804688	1095.030639648438	-699.4912109375001	-284.9328613281251	1035.815307617188	-685.7972412109376	-252.3861541748047	1034.4130859375	-682.0543823242189	-317.9731140136719	958.8675537109377	-704.7952880859376	-310.1663513183594	820.097351074219	-700.7109985351564	-282.4738464355469	810.974792480469	-819.731140136719	-258.5234985351563	643.8670654296876	-702.7073974609376	-337.4869689941407	563.8483886718751	-674.9644165039064	-290.0134887695313	567.9895019531251	-676.3306274414064	-272.5346374511719	516.0247802734376	-698.4443969726564	-335.5912475585938	389.6921386718751	-671.3147583007814	-293.5124816894532	394.2687377929689	-742.7958374023439	-390.8643188476564	392.7353820800782	-743.5188598632814	-215.9045715332032	263.4043273925782	-729.0006103515626	-223.567123413086	256.1905822753907	-682.8341064453126	-276.9533996582032	251.0062255859376	-650.4379272460939	
